<svg xmlns="http://www.w3.org/2000/svg" xmlns:xlink="http://www.w3.org/1999/xlink" width="400" zoomAndPan="magnify" viewBox="0 0 300 157.5" height="210" preserveAspectRatio="xMidYMid meet" version="1.0"><defs><filter x="0%" y="0%" width="100%" height="100%" id="5032ea8db8"><feColorMatrix values="0 0 0 0 1 0 0 0 0 1 0 0 0 0 1 0 0 0 1 0" color-interpolation-filters="sRGB"/></filter><g/><clipPath id="781e9ccc42"><path d="M 0.476562 18 L 75 18 L 75 156.253906 L 0.476562 156.253906 Z M 0.476562 18 " clip-rule="nonzero"/></clipPath><clipPath id="99e03aa68e"><path d="M 26 0 L 100.65625 0 L 100.65625 137 L 26 137 Z M 26 0 " clip-rule="nonzero"/></clipPath><mask id="e20c335d02"><g filter="url(#5032ea8db8)"><rect x="-30" width="360" fill="#000000" y="-15.75" height="189" fill-opacity="0.83"/></g></mask><clipPath id="d088ca61eb"><path d="M 1 1.097656 L 176.496094 1.097656 L 176.496094 3 L 1 3 Z M 1 1.097656 " clip-rule="nonzero"/></clipPath><clipPath id="b836b2e803"><rect x="0" width="177" y="0" height="4"/></clipPath></defs><g clip-path="url(#781e9ccc42)"><path fill="#ffffff" d="M 69.023438 32.035156 C 63.265625 29.707031 56.976562 28.421875 50.390625 28.421875 C 22.886719 28.421875 0.507812 50.796875 0.507812 78.300781 L 0.507812 156.601562 L 20.054688 156.601562 L 20.054688 78.300781 C 20.054688 61.574219 33.664062 47.964844 50.390625 47.964844 C 60.203125 47.964844 68.9375 52.652344 74.484375 59.902344 L 74.484375 18.566406 Z M 69.023438 32.035156 " fill-opacity="1" fill-rule="nonzero"/></g><g clip-path="url(#99e03aa68e)"><path fill="#ffffff" d="M 80.726562 0 L 80.726562 78.300781 C 80.726562 95.027344 67.117188 108.636719 50.390625 108.636719 C 40.578125 108.636719 31.84375 103.953125 26.296875 96.703125 L 26.296875 136.714844 L 31.296875 124.382812 C 37.179688 126.828125 43.628906 128.183594 50.390625 128.183594 C 77.894531 128.183594 100.273438 105.808594 100.273438 78.300781 L 100.273438 0 Z M 80.726562 0 " fill-opacity="1" fill-rule="nonzero"/></g><g fill="#ffffff" fill-opacity="1"><g transform="translate(107.95285, 85.127889)"><g><path d="M 7.5 -13.953125 C 9.28125 -13.953125 10.675781 -13.523438 11.6875 -12.671875 C 12.695312 -11.828125 13.203125 -10.660156 13.203125 -9.171875 C 13.203125 -7.679688 12.695312 -6.515625 11.6875 -5.671875 C 10.675781 -4.828125 9.28125 -4.40625 7.5 -4.40625 L 3.75 -4.40625 L 3.75 0 L 2.265625 0 L 2.265625 -13.953125 Z M 7.453125 -5.703125 C 8.835938 -5.703125 9.894531 -6.003906 10.625 -6.609375 C 11.351562 -7.210938 11.71875 -8.066406 11.71875 -9.171875 C 11.71875 -10.296875 11.351562 -11.160156 10.625 -11.765625 C 9.894531 -12.378906 8.835938 -12.6875 7.453125 -12.6875 L 3.75 -12.6875 L 3.75 -5.703125 Z M 7.453125 -5.703125 "/></g></g></g><g fill="#ffffff" fill-opacity="1"><g transform="translate(125.571257, 85.127889)"><g><path d="M 8.375 0.125 C 6.988281 0.125 5.734375 -0.179688 4.609375 -0.796875 C 3.492188 -1.421875 2.617188 -2.269531 1.984375 -3.34375 C 1.347656 -4.425781 1.03125 -5.640625 1.03125 -6.984375 C 1.03125 -8.316406 1.347656 -9.519531 1.984375 -10.59375 C 2.617188 -11.675781 3.492188 -12.523438 4.609375 -13.140625 C 5.734375 -13.765625 6.988281 -14.078125 8.375 -14.078125 C 9.757812 -14.078125 11.003906 -13.769531 12.109375 -13.15625 C 13.222656 -12.539062 14.097656 -11.691406 14.734375 -10.609375 C 15.367188 -9.523438 15.6875 -8.316406 15.6875 -6.984375 C 15.6875 -5.640625 15.367188 -4.425781 14.734375 -3.34375 C 14.097656 -2.257812 13.222656 -1.410156 12.109375 -0.796875 C 11.003906 -0.179688 9.757812 0.125 8.375 0.125 Z M 8.375 -1.203125 C 9.476562 -1.203125 10.472656 -1.445312 11.359375 -1.9375 C 12.253906 -2.4375 12.953125 -3.128906 13.453125 -4.015625 C 13.960938 -4.898438 14.21875 -5.890625 14.21875 -6.984375 C 14.21875 -8.066406 13.960938 -9.050781 13.453125 -9.9375 C 12.953125 -10.820312 12.253906 -11.515625 11.359375 -12.015625 C 10.472656 -12.515625 9.476562 -12.765625 8.375 -12.765625 C 7.269531 -12.765625 6.269531 -12.515625 5.375 -12.015625 C 4.476562 -11.515625 3.773438 -10.820312 3.265625 -9.9375 C 2.753906 -9.050781 2.5 -8.066406 2.5 -6.984375 C 2.5 -5.890625 2.753906 -4.898438 3.265625 -4.015625 C 3.773438 -3.128906 4.476562 -2.4375 5.375 -1.9375 C 6.269531 -1.445312 7.269531 -1.203125 8.375 -1.203125 Z M 8.375 -1.203125 "/></g></g></g><g fill="#ffffff" fill-opacity="1"><g transform="translate(145.601061, 85.127889)"><g><path d="M 4.984375 -12.6875 L 0.078125 -12.6875 L 0.078125 -13.953125 L 11.359375 -13.953125 L 11.359375 -12.6875 L 6.453125 -12.6875 L 6.453125 0 L 4.984375 0 Z M 4.984375 -12.6875 "/></g></g></g><g fill="#ffffff" fill-opacity="1"><g transform="translate(160.349714, 85.127889)"><g><path d="M 7.0625 -4.828125 L 7.0625 0 L 5.609375 0 L 5.609375 -4.828125 L 0.015625 -13.953125 L 1.59375 -13.953125 L 6.375 -6.125 L 11.171875 -13.953125 L 12.640625 -13.953125 Z M 7.0625 -4.828125 "/></g></g></g><g fill="#ffffff" fill-opacity="1"><g transform="translate(176.314027, 85.127889)"><g/></g></g><g fill="#ffffff" fill-opacity="1"><g transform="translate(184.844887, 85.127889)"><g><path d="M 2.265625 -13.953125 L 7.953125 -13.953125 C 9.429688 -13.953125 10.734375 -13.65625 11.859375 -13.0625 C 12.992188 -12.476562 13.875 -11.65625 14.5 -10.59375 C 15.125 -9.539062 15.4375 -8.335938 15.4375 -6.984375 C 15.4375 -5.617188 15.125 -4.410156 14.5 -3.359375 C 13.875 -2.304688 12.992188 -1.484375 11.859375 -0.890625 C 10.734375 -0.296875 9.429688 0 7.953125 0 L 2.265625 0 Z M 7.875 -1.28125 C 9.09375 -1.28125 10.160156 -1.519531 11.078125 -2 C 12.003906 -2.488281 12.71875 -3.160156 13.21875 -4.015625 C 13.71875 -4.867188 13.96875 -5.859375 13.96875 -6.984375 C 13.96875 -8.097656 13.71875 -9.082031 13.21875 -9.9375 C 12.71875 -10.789062 12.003906 -11.460938 11.078125 -11.953125 C 10.160156 -12.441406 9.09375 -12.6875 7.875 -12.6875 L 3.75 -12.6875 L 3.75 -1.28125 Z M 7.875 -1.28125 "/></g></g></g><g fill="#ffffff" fill-opacity="1"><g transform="translate(204.615603, 85.127889)"><g><path d="M 2.265625 -13.953125 L 3.75 -13.953125 L 3.75 0 L 2.265625 0 Z M 2.265625 -13.953125 "/></g></g></g><g fill="#ffffff" fill-opacity="1"><g transform="translate(213.943606, 85.127889)"><g><path d="M 12.109375 -6.984375 L 13.515625 -6.984375 L 13.515625 -1.65625 C 12.867188 -1.082031 12.097656 -0.640625 11.203125 -0.328125 C 10.316406 -0.0234375 9.378906 0.125 8.390625 0.125 C 6.992188 0.125 5.738281 -0.179688 4.625 -0.796875 C 3.507812 -1.410156 2.628906 -2.257812 1.984375 -3.34375 C 1.347656 -4.425781 1.03125 -5.640625 1.03125 -6.984375 C 1.03125 -8.316406 1.347656 -9.523438 1.984375 -10.609375 C 2.628906 -11.691406 3.507812 -12.539062 4.625 -13.15625 C 5.738281 -13.769531 7 -14.078125 8.40625 -14.078125 C 9.476562 -14.078125 10.457031 -13.90625 11.34375 -13.5625 C 12.238281 -13.226562 12.988281 -12.726562 13.59375 -12.0625 L 12.6875 -11.125 C 11.582031 -12.21875 10.175781 -12.765625 8.46875 -12.765625 C 7.34375 -12.765625 6.320312 -12.515625 5.40625 -12.015625 C 4.5 -11.515625 3.785156 -10.820312 3.265625 -9.9375 C 2.753906 -9.050781 2.5 -8.066406 2.5 -6.984375 C 2.5 -5.890625 2.753906 -4.90625 3.265625 -4.03125 C 3.785156 -3.15625 4.5 -2.460938 5.40625 -1.953125 C 6.3125 -1.453125 7.328125 -1.203125 8.453125 -1.203125 C 9.890625 -1.203125 11.109375 -1.554688 12.109375 -2.265625 Z M 12.109375 -6.984375 "/></g></g></g><g fill="#ffffff" fill-opacity="1"><g transform="translate(232.658102, 85.127889)"><g><path d="M 2.265625 -13.953125 L 3.75 -13.953125 L 3.75 0 L 2.265625 0 Z M 2.265625 -13.953125 "/></g></g></g><g fill="#ffffff" fill-opacity="1"><g transform="translate(241.986105, 85.127889)"><g><path d="M 4.984375 -12.6875 L 0.078125 -12.6875 L 0.078125 -13.953125 L 11.359375 -13.953125 L 11.359375 -12.6875 L 6.453125 -12.6875 L 6.453125 0 L 4.984375 0 Z M 4.984375 -12.6875 "/></g></g></g><g fill="#ffffff" fill-opacity="1"><g transform="translate(256.734754, 85.127889)"><g><path d="M 11.03125 -3.734375 L 3.25 -3.734375 L 1.578125 0 L 0.046875 0 L 6.421875 -13.953125 L 7.875 -13.953125 L 14.25 0 L 12.703125 0 Z M 10.484375 -4.921875 L 7.140625 -12.421875 L 3.78125 -4.921875 Z M 10.484375 -4.921875 "/></g></g></g><g fill="#ffffff" fill-opacity="1"><g transform="translate(274.333229, 85.127889)"><g><path d="M 2.265625 -13.953125 L 3.75 -13.953125 L 3.75 -1.28125 L 11.5625 -1.28125 L 11.5625 0 L 2.265625 0 Z M 2.265625 -13.953125 "/></g></g></g><g mask="url(#e20c335d02)"><g transform="matrix(1, 0, 0, 1, 107, 94)"><g clip-path="url(#b836b2e803)"><g clip-path="url(#d088ca61eb)"><path fill="#ffffff" d="M 1.078125 2.15625 C 59.25 1.140625 118.058594 1.132812 176.230469 2.15625 C 118.066406 3.179688 59.25 3.171875 1.078125 2.15625 Z M 1.078125 2.15625 " fill-opacity="1" fill-rule="nonzero"/></g></g></g></g><g fill="#ffffff" fill-opacity="1"><g transform="translate(110.292155, 108.887827)"><g><path d="M 2.375 0.0625 C 2.007812 0.0625 1.679688 0 1.390625 -0.125 C 1.097656 -0.257812 0.867188 -0.441406 0.703125 -0.671875 C 0.546875 -0.910156 0.460938 -1.179688 0.453125 -1.484375 L 1.234375 -1.484375 C 1.253906 -1.222656 1.359375 -1.003906 1.546875 -0.828125 C 1.734375 -0.648438 2.007812 -0.5625 2.375 -0.5625 C 2.71875 -0.5625 2.988281 -0.644531 3.1875 -0.8125 C 3.382812 -0.988281 3.484375 -1.210938 3.484375 -1.484375 C 3.484375 -1.691406 3.425781 -1.863281 3.3125 -2 C 3.195312 -2.132812 3.050781 -2.234375 2.875 -2.296875 C 2.695312 -2.367188 2.460938 -2.445312 2.171875 -2.53125 C 1.804688 -2.625 1.507812 -2.71875 1.28125 -2.8125 C 1.0625 -2.90625 0.875 -3.050781 0.71875 -3.25 C 0.5625 -3.457031 0.484375 -3.738281 0.484375 -4.09375 C 0.484375 -4.394531 0.5625 -4.660156 0.71875 -4.890625 C 0.875 -5.128906 1.085938 -5.3125 1.359375 -5.4375 C 1.640625 -5.5625 1.960938 -5.625 2.328125 -5.625 C 2.847656 -5.625 3.273438 -5.492188 3.609375 -5.234375 C 3.941406 -4.972656 4.128906 -4.628906 4.171875 -4.203125 L 3.375 -4.203125 C 3.34375 -4.410156 3.226562 -4.59375 3.03125 -4.75 C 2.832031 -4.914062 2.570312 -5 2.25 -5 C 1.945312 -5 1.703125 -4.921875 1.515625 -4.765625 C 1.328125 -4.609375 1.234375 -4.390625 1.234375 -4.109375 C 1.234375 -3.910156 1.285156 -3.742188 1.390625 -3.609375 C 1.503906 -3.484375 1.644531 -3.390625 1.8125 -3.328125 C 1.988281 -3.265625 2.226562 -3.1875 2.53125 -3.09375 C 2.894531 -3 3.1875 -2.898438 3.40625 -2.796875 C 3.632812 -2.703125 3.828125 -2.550781 3.984375 -2.34375 C 4.140625 -2.144531 4.21875 -1.867188 4.21875 -1.515625 C 4.21875 -1.242188 4.144531 -0.988281 4 -0.75 C 3.863281 -0.507812 3.65625 -0.3125 3.375 -0.15625 C 3.09375 -0.0078125 2.757812 0.0625 2.375 0.0625 Z M 2.375 0.0625 "/></g></g></g><g fill="#ffffff" fill-opacity="1"><g transform="translate(116.297257, 108.887827)"><g><path d="M 3.125 0.0625 C 2.613281 0.0625 2.144531 -0.0546875 1.71875 -0.296875 C 1.289062 -0.546875 0.953125 -0.882812 0.703125 -1.3125 C 0.460938 -1.75 0.34375 -2.238281 0.34375 -2.78125 C 0.34375 -3.320312 0.460938 -3.804688 0.703125 -4.234375 C 0.953125 -4.671875 1.289062 -5.007812 1.71875 -5.25 C 2.144531 -5.5 2.613281 -5.625 3.125 -5.625 C 3.644531 -5.625 4.117188 -5.5 4.546875 -5.25 C 4.972656 -5.007812 5.304688 -4.675781 5.546875 -4.25 C 5.796875 -3.820312 5.921875 -3.332031 5.921875 -2.78125 C 5.921875 -2.226562 5.796875 -1.738281 5.546875 -1.3125 C 5.304688 -0.882812 4.972656 -0.546875 4.546875 -0.296875 C 4.117188 -0.0546875 3.644531 0.0625 3.125 0.0625 Z M 3.125 -0.578125 C 3.519531 -0.578125 3.867188 -0.664062 4.171875 -0.84375 C 4.484375 -1.019531 4.726562 -1.273438 4.90625 -1.609375 C 5.082031 -1.953125 5.171875 -2.34375 5.171875 -2.78125 C 5.171875 -3.226562 5.082031 -3.617188 4.90625 -3.953125 C 4.726562 -4.285156 4.484375 -4.539062 4.171875 -4.71875 C 3.867188 -4.894531 3.519531 -4.984375 3.125 -4.984375 C 2.738281 -4.984375 2.390625 -4.894531 2.078125 -4.71875 C 1.773438 -4.539062 1.53125 -4.285156 1.34375 -3.953125 C 1.164062 -3.617188 1.078125 -3.226562 1.078125 -2.78125 C 1.078125 -2.34375 1.164062 -1.953125 1.34375 -1.609375 C 1.53125 -1.273438 1.773438 -1.019531 2.078125 -0.84375 C 2.390625 -0.664062 2.738281 -0.578125 3.125 -0.578125 Z M 3.125 -0.578125 "/></g></g></g><g fill="#ffffff" fill-opacity="1"><g transform="translate(123.889366, 108.887827)"><g><path d="M 0.34375 -2.78125 C 0.34375 -3.320312 0.460938 -3.804688 0.703125 -4.234375 C 0.953125 -4.671875 1.285156 -5.007812 1.703125 -5.25 C 2.128906 -5.5 2.597656 -5.625 3.109375 -5.625 C 3.722656 -5.625 4.253906 -5.476562 4.703125 -5.1875 C 5.148438 -4.894531 5.476562 -4.476562 5.6875 -3.9375 L 4.828125 -3.9375 C 4.671875 -4.28125 4.445312 -4.539062 4.15625 -4.71875 C 3.863281 -4.894531 3.515625 -4.984375 3.109375 -4.984375 C 2.722656 -4.984375 2.375 -4.894531 2.0625 -4.71875 C 1.757812 -4.539062 1.519531 -4.285156 1.34375 -3.953125 C 1.164062 -3.617188 1.078125 -3.226562 1.078125 -2.78125 C 1.078125 -2.34375 1.164062 -1.957031 1.34375 -1.625 C 1.519531 -1.289062 1.757812 -1.03125 2.0625 -0.84375 C 2.375 -0.664062 2.722656 -0.578125 3.109375 -0.578125 C 3.515625 -0.578125 3.863281 -0.664062 4.15625 -0.84375 C 4.445312 -1.019531 4.671875 -1.28125 4.828125 -1.625 L 5.6875 -1.625 C 5.476562 -1.09375 5.148438 -0.679688 4.703125 -0.390625 C 4.253906 -0.0976562 3.722656 0.046875 3.109375 0.046875 C 2.597656 0.046875 2.128906 -0.0703125 1.703125 -0.3125 C 1.285156 -0.550781 0.953125 -0.882812 0.703125 -1.3125 C 0.460938 -1.75 0.34375 -2.238281 0.34375 -2.78125 Z M 0.34375 -2.78125 "/></g></g></g><g fill="#ffffff" fill-opacity="1"><g transform="translate(131.369827, 108.887827)"><g><path d="M 1.34375 -5.546875 L 1.34375 0 L 0.609375 0 L 0.609375 -5.546875 Z M 1.34375 -5.546875 "/></g></g></g><g fill="#ffffff" fill-opacity="1"><g transform="translate(134.655486, 108.887827)"><g><path d="M 3.890625 -1.234375 L 1.46875 -1.234375 L 1.03125 0 L 0.265625 0 L 2.265625 -5.515625 L 3.109375 -5.515625 L 5.109375 0 L 4.34375 0 Z M 3.6875 -1.828125 L 2.6875 -4.625 L 1.6875 -1.828125 Z M 3.6875 -1.828125 "/></g></g></g><g fill="#ffffff" fill-opacity="1"><g transform="translate(141.354406, 108.887827)"><g><path d="M 1.34375 -0.59375 L 3.28125 -0.59375 L 3.28125 0 L 0.609375 0 L 0.609375 -5.546875 L 1.34375 -5.546875 Z M 1.34375 -0.59375 "/></g></g></g><g fill="#ffffff" fill-opacity="1"><g transform="translate(146.123395, 108.887827)"><g/></g></g><g fill="#ffffff" fill-opacity="1"><g transform="translate(149.576526, 108.887827)"><g><path d="M 6.25 -5.515625 L 6.25 0 L 5.515625 0 L 5.515625 -4.109375 L 3.6875 0 L 3.171875 0 L 1.34375 -4.125 L 1.34375 0 L 0.609375 0 L 0.609375 -5.515625 L 1.390625 -5.515625 L 3.4375 -0.953125 L 5.46875 -5.515625 Z M 6.25 -5.515625 "/></g></g></g><g fill="#ffffff" fill-opacity="1"><g transform="translate(157.766754, 108.887827)"><g><path d="M 1.34375 -4.96875 L 1.34375 -3.109375 L 3.359375 -3.109375 L 3.359375 -2.515625 L 1.34375 -2.515625 L 1.34375 -0.59375 L 3.609375 -0.59375 L 3.609375 0 L 0.609375 0 L 0.609375 -5.5625 L 3.609375 -5.5625 L 3.609375 -4.96875 Z M 1.34375 -4.96875 "/></g></g></g><g fill="#ffffff" fill-opacity="1"><g transform="translate(163.181704, 108.887827)"><g><path d="M 2.34375 -5.546875 C 2.945312 -5.546875 3.46875 -5.429688 3.90625 -5.203125 C 4.351562 -4.984375 4.695312 -4.664062 4.9375 -4.25 C 5.175781 -3.832031 5.296875 -3.335938 5.296875 -2.765625 C 5.296875 -2.191406 5.175781 -1.695312 4.9375 -1.28125 C 4.695312 -0.863281 4.351562 -0.546875 3.90625 -0.328125 C 3.46875 -0.109375 2.945312 0 2.34375 0 L 0.609375 0 L 0.609375 -5.546875 Z M 2.34375 -0.59375 C 3.0625 -0.59375 3.609375 -0.78125 3.984375 -1.15625 C 4.359375 -1.539062 4.546875 -2.078125 4.546875 -2.765625 C 4.546875 -3.453125 4.351562 -3.988281 3.96875 -4.375 C 3.59375 -4.769531 3.050781 -4.96875 2.34375 -4.96875 L 1.34375 -4.96875 L 1.34375 -0.59375 Z M 2.34375 -0.59375 "/></g></g></g><g fill="#ffffff" fill-opacity="1"><g transform="translate(170.143789, 108.887827)"><g><path d="M 1.34375 -5.546875 L 1.34375 0 L 0.609375 0 L 0.609375 -5.546875 Z M 1.34375 -5.546875 "/></g></g></g><g fill="#ffffff" fill-opacity="1"><g transform="translate(173.429445, 108.887827)"><g><path d="M 3.890625 -1.234375 L 1.46875 -1.234375 L 1.03125 0 L 0.265625 0 L 2.265625 -5.515625 L 3.109375 -5.515625 L 5.109375 0 L 4.34375 0 Z M 3.6875 -1.828125 L 2.6875 -4.625 L 1.6875 -1.828125 Z M 3.6875 -1.828125 "/></g></g></g><g fill="#ffffff" fill-opacity="1"><g transform="translate(180.128362, 108.887827)"><g/></g></g><g fill="#ffffff" fill-opacity="1"><g transform="translate(183.58149, 108.887827)"><g><path d="M 4.875 0 L 4.15625 -0.734375 C 3.882812 -0.453125 3.59375 -0.242188 3.28125 -0.109375 C 2.976562 0.0234375 2.628906 0.09375 2.234375 0.09375 C 1.859375 0.09375 1.519531 0.0234375 1.21875 -0.109375 C 0.925781 -0.242188 0.695312 -0.4375 0.53125 -0.6875 C 0.375 -0.945312 0.296875 -1.25 0.296875 -1.59375 C 0.296875 -1.976562 0.40625 -2.316406 0.625 -2.609375 C 0.84375 -2.910156 1.171875 -3.144531 1.609375 -3.3125 C 1.429688 -3.519531 1.304688 -3.707031 1.234375 -3.875 C 1.160156 -4.039062 1.125 -4.226562 1.125 -4.4375 C 1.125 -4.664062 1.179688 -4.875 1.296875 -5.0625 C 1.421875 -5.25 1.59375 -5.394531 1.8125 -5.5 C 2.039062 -5.613281 2.300781 -5.671875 2.59375 -5.671875 C 2.875 -5.671875 3.117188 -5.613281 3.328125 -5.5 C 3.546875 -5.382812 3.707031 -5.226562 3.8125 -5.03125 C 3.914062 -4.832031 3.960938 -4.609375 3.953125 -4.359375 L 3.234375 -4.359375 C 3.242188 -4.578125 3.179688 -4.75 3.046875 -4.875 C 2.921875 -5 2.757812 -5.0625 2.5625 -5.0625 C 2.34375 -5.0625 2.164062 -5 2.03125 -4.875 C 1.90625 -4.757812 1.84375 -4.613281 1.84375 -4.4375 C 1.84375 -4.269531 1.882812 -4.113281 1.96875 -3.96875 C 2.0625 -3.820312 2.210938 -3.640625 2.421875 -3.421875 L 4.078125 -1.75 L 4.21875 -1.96875 L 4.765625 -2.890625 L 5.546875 -2.890625 L 4.890625 -1.75 C 4.796875 -1.59375 4.691406 -1.425781 4.578125 -1.25 L 5.828125 0 Z M 2.234375 -0.53125 C 2.523438 -0.53125 2.785156 -0.582031 3.015625 -0.6875 C 3.242188 -0.800781 3.460938 -0.976562 3.671875 -1.21875 L 2.046875 -2.859375 C 1.359375 -2.597656 1.015625 -2.1875 1.015625 -1.625 C 1.015625 -1.300781 1.128906 -1.035156 1.359375 -0.828125 C 1.585938 -0.628906 1.878906 -0.53125 2.234375 -0.53125 Z M 2.234375 -0.53125 "/></g></g></g><g fill="#ffffff" fill-opacity="1"><g transform="translate(190.798772, 108.887827)"><g/></g></g><g fill="#ffffff" fill-opacity="1"><g transform="translate(194.2519, 108.887827)"><g><path d="M 7.59375 -5.546875 L 5.984375 0 L 5.171875 0 L 3.875 -4.46875 L 2.546875 0 L 1.734375 0.015625 L 0.1875 -5.546875 L 0.953125 -5.546875 L 2.171875 -0.84375 L 3.5 -5.546875 L 4.3125 -5.546875 L 5.59375 -0.859375 L 6.8125 -5.546875 Z M 7.59375 -5.546875 "/></g></g></g><g fill="#ffffff" fill-opacity="1"><g transform="translate(203.359245, 108.887827)"><g><path d="M 1.34375 -4.96875 L 1.34375 -3.109375 L 3.359375 -3.109375 L 3.359375 -2.515625 L 1.34375 -2.515625 L 1.34375 -0.59375 L 3.609375 -0.59375 L 3.609375 0 L 0.609375 0 L 0.609375 -5.5625 L 3.609375 -5.5625 L 3.609375 -4.96875 Z M 1.34375 -4.96875 "/></g></g></g><g fill="#ffffff" fill-opacity="1"><g transform="translate(208.7742, 108.887827)"><g><path d="M 3.390625 -2.859375 C 3.597656 -2.828125 3.785156 -2.742188 3.953125 -2.609375 C 4.117188 -2.484375 4.25 -2.320312 4.34375 -2.125 C 4.445312 -1.925781 4.5 -1.710938 4.5 -1.484375 C 4.5 -1.203125 4.425781 -0.945312 4.28125 -0.71875 C 4.132812 -0.5 3.925781 -0.320312 3.65625 -0.1875 C 3.382812 -0.0625 3.0625 0 2.6875 0 L 0.609375 0 L 0.609375 -5.546875 L 2.609375 -5.546875 C 2.984375 -5.546875 3.300781 -5.484375 3.5625 -5.359375 C 3.832031 -5.234375 4.03125 -5.066406 4.15625 -4.859375 C 4.289062 -4.648438 4.359375 -4.410156 4.359375 -4.140625 C 4.359375 -3.816406 4.269531 -3.546875 4.09375 -3.328125 C 3.914062 -3.109375 3.679688 -2.953125 3.390625 -2.859375 Z M 1.34375 -3.15625 L 2.5625 -3.15625 C 2.894531 -3.15625 3.15625 -3.234375 3.34375 -3.390625 C 3.53125 -3.554688 3.625 -3.78125 3.625 -4.0625 C 3.625 -4.34375 3.53125 -4.5625 3.34375 -4.71875 C 3.15625 -4.875 2.890625 -4.953125 2.546875 -4.953125 L 1.34375 -4.953125 Z M 2.625 -0.59375 C 2.976562 -0.59375 3.253906 -0.675781 3.453125 -0.84375 C 3.660156 -1.019531 3.765625 -1.257812 3.765625 -1.5625 C 3.765625 -1.875 3.65625 -2.117188 3.4375 -2.296875 C 3.226562 -2.472656 2.945312 -2.5625 2.59375 -2.5625 L 1.34375 -2.5625 L 1.34375 -0.59375 Z M 2.625 -0.59375 "/></g></g></g><g fill="#ffffff" fill-opacity="1"><g transform="translate(214.986649, 108.887827)"><g/></g></g><g fill="#ffffff" fill-opacity="1"><g transform="translate(218.439782, 108.887827)"><g><path d="M 2.34375 -5.546875 C 2.945312 -5.546875 3.46875 -5.429688 3.90625 -5.203125 C 4.351562 -4.984375 4.695312 -4.664062 4.9375 -4.25 C 5.175781 -3.832031 5.296875 -3.335938 5.296875 -2.765625 C 5.296875 -2.191406 5.175781 -1.695312 4.9375 -1.28125 C 4.695312 -0.863281 4.351562 -0.546875 3.90625 -0.328125 C 3.46875 -0.109375 2.945312 0 2.34375 0 L 0.609375 0 L 0.609375 -5.546875 Z M 2.34375 -0.59375 C 3.0625 -0.59375 3.609375 -0.78125 3.984375 -1.15625 C 4.359375 -1.539062 4.546875 -2.078125 4.546875 -2.765625 C 4.546875 -3.453125 4.351562 -3.988281 3.96875 -4.375 C 3.59375 -4.769531 3.050781 -4.96875 2.34375 -4.96875 L 1.34375 -4.96875 L 1.34375 -0.59375 Z M 2.34375 -0.59375 "/></g></g></g><g fill="#ffffff" fill-opacity="1"><g transform="translate(225.401872, 108.887827)"><g><path d="M 1.34375 -4.96875 L 1.34375 -3.109375 L 3.359375 -3.109375 L 3.359375 -2.515625 L 1.34375 -2.515625 L 1.34375 -0.59375 L 3.609375 -0.59375 L 3.609375 0 L 0.609375 0 L 0.609375 -5.5625 L 3.609375 -5.5625 L 3.609375 -4.96875 Z M 1.34375 -4.96875 "/></g></g></g><g fill="#ffffff" fill-opacity="1"><g transform="translate(230.816828, 108.887827)"><g><path d="M 5.203125 -5.546875 L 3.109375 0 L 2.265625 0 L 0.171875 -5.546875 L 0.953125 -5.546875 L 2.6875 -0.765625 L 4.4375 -5.546875 Z M 5.203125 -5.546875 "/></g></g></g><g fill="#ffffff" fill-opacity="1"><g transform="translate(237.531701, 108.887827)"><g><path d="M 1.34375 -4.96875 L 1.34375 -3.109375 L 3.359375 -3.109375 L 3.359375 -2.515625 L 1.34375 -2.515625 L 1.34375 -0.59375 L 3.609375 -0.59375 L 3.609375 0 L 0.609375 0 L 0.609375 -5.5625 L 3.609375 -5.5625 L 3.609375 -4.96875 Z M 1.34375 -4.96875 "/></g></g></g><g fill="#ffffff" fill-opacity="1"><g transform="translate(242.946656, 108.887827)"><g><path d="M 1.34375 -0.59375 L 3.28125 -0.59375 L 3.28125 0 L 0.609375 0 L 0.609375 -5.546875 L 1.34375 -5.546875 Z M 1.34375 -0.59375 "/></g></g></g><g fill="#ffffff" fill-opacity="1"><g transform="translate(247.715648, 108.887827)"><g><path d="M 3.125 0.0625 C 2.613281 0.0625 2.144531 -0.0546875 1.71875 -0.296875 C 1.289062 -0.546875 0.953125 -0.882812 0.703125 -1.3125 C 0.460938 -1.75 0.34375 -2.238281 0.34375 -2.78125 C 0.34375 -3.320312 0.460938 -3.804688 0.703125 -4.234375 C 0.953125 -4.671875 1.289062 -5.007812 1.71875 -5.25 C 2.144531 -5.5 2.613281 -5.625 3.125 -5.625 C 3.644531 -5.625 4.117188 -5.5 4.546875 -5.25 C 4.972656 -5.007812 5.304688 -4.675781 5.546875 -4.25 C 5.796875 -3.820312 5.921875 -3.332031 5.921875 -2.78125 C 5.921875 -2.226562 5.796875 -1.738281 5.546875 -1.3125 C 5.304688 -0.882812 4.972656 -0.546875 4.546875 -0.296875 C 4.117188 -0.0546875 3.644531 0.0625 3.125 0.0625 Z M 3.125 -0.578125 C 3.519531 -0.578125 3.867188 -0.664062 4.171875 -0.84375 C 4.484375 -1.019531 4.726562 -1.273438 4.90625 -1.609375 C 5.082031 -1.953125 5.171875 -2.34375 5.171875 -2.78125 C 5.171875 -3.226562 5.082031 -3.617188 4.90625 -3.953125 C 4.726562 -4.285156 4.484375 -4.539062 4.171875 -4.71875 C 3.867188 -4.894531 3.519531 -4.984375 3.125 -4.984375 C 2.738281 -4.984375 2.390625 -4.894531 2.078125 -4.71875 C 1.773438 -4.539062 1.53125 -4.285156 1.34375 -3.953125 C 1.164062 -3.617188 1.078125 -3.226562 1.078125 -2.78125 C 1.078125 -2.34375 1.164062 -1.953125 1.34375 -1.609375 C 1.53125 -1.273438 1.773438 -1.019531 2.078125 -0.84375 C 2.390625 -0.664062 2.738281 -0.578125 3.125 -0.578125 Z M 3.125 -0.578125 "/></g></g></g><g fill="#ffffff" fill-opacity="1"><g transform="translate(255.30776, 108.887827)"><g><path d="M 4.328125 -3.921875 C 4.328125 -3.460938 4.164062 -3.078125 3.84375 -2.765625 C 3.53125 -2.460938 3.050781 -2.3125 2.40625 -2.3125 L 1.34375 -2.3125 L 1.34375 0 L 0.609375 0 L 0.609375 -5.546875 L 2.40625 -5.546875 C 3.03125 -5.546875 3.503906 -5.394531 3.828125 -5.09375 C 4.160156 -4.789062 4.328125 -4.398438 4.328125 -3.921875 Z M 2.40625 -2.921875 C 2.8125 -2.921875 3.109375 -3.003906 3.296875 -3.171875 C 3.484375 -3.347656 3.578125 -3.597656 3.578125 -3.921875 C 3.578125 -4.609375 3.1875 -4.953125 2.40625 -4.953125 L 1.34375 -4.953125 L 1.34375 -2.921875 Z M 2.40625 -2.921875 "/></g></g></g><g fill="#ffffff" fill-opacity="1"><g transform="translate(261.249061, 108.887827)"><g><path d="M 6.25 -5.515625 L 6.25 0 L 5.515625 0 L 5.515625 -4.109375 L 3.6875 0 L 3.171875 0 L 1.34375 -4.125 L 1.34375 0 L 0.609375 0 L 0.609375 -5.515625 L 1.390625 -5.515625 L 3.4375 -0.953125 L 5.46875 -5.515625 Z M 6.25 -5.515625 "/></g></g></g><g fill="#ffffff" fill-opacity="1"><g transform="translate(269.439294, 108.887827)"><g><path d="M 1.34375 -4.96875 L 1.34375 -3.109375 L 3.359375 -3.109375 L 3.359375 -2.515625 L 1.34375 -2.515625 L 1.34375 -0.59375 L 3.609375 -0.59375 L 3.609375 0 L 0.609375 0 L 0.609375 -5.5625 L 3.609375 -5.5625 L 3.609375 -4.96875 Z M 1.34375 -4.96875 "/></g></g></g><g fill="#ffffff" fill-opacity="1"><g transform="translate(274.854249, 108.887827)"><g><path d="M 4.984375 0 L 4.25 0 L 1.34375 -4.421875 L 1.34375 0 L 0.609375 0 L 0.609375 -5.5625 L 1.34375 -5.5625 L 4.25 -1.140625 L 4.25 -5.5625 L 4.984375 -5.5625 Z M 4.984375 0 "/></g></g></g><g fill="#ffffff" fill-opacity="1"><g transform="translate(281.784447, 108.887827)"><g><path d="M 4.03125 -5.546875 L 4.03125 -4.96875 L 2.515625 -4.96875 L 2.515625 0 L 1.796875 0 L 1.796875 -4.96875 L 0.265625 -4.96875 L 0.265625 -5.546875 Z M 4.03125 -5.546875 "/></g></g></g></svg>