<svg xmlns="http://www.w3.org/2000/svg" xmlns:xlink="http://www.w3.org/1999/xlink" width="356" zoomAndPan="magnify" viewBox="0 0 267 93.749996" height="125" preserveAspectRatio="xMidYMid meet" version="1.0"><defs><g/><clipPath id="fd4cfae9ed"><path d="M 0.355469 0 L 23 0 L 23 93.5 L 0.355469 93.5 Z M 0.355469 0 " clip-rule="nonzero"/></clipPath><clipPath id="bca6dc4708"><path d="M 243 0 L 266.644531 0 L 266.644531 93.5 L 243 93.5 Z M 243 0 " clip-rule="nonzero"/></clipPath></defs><g fill="#ffffff" fill-opacity="1"><g transform="translate(19.955594, 53.555649)"><g><path d="M 5.875 0 L 5.875 -0.375 L 6.71875 -0.375 C 8.738281 -0.375 9.75 -1.257812 9.75 -3.03125 L 9.75 -11.546875 L 3.171875 -24.03125 C 2.773438 -24.769531 2.390625 -25.28125 2.015625 -25.5625 C 1.648438 -25.84375 1.160156 -25.984375 0.546875 -25.984375 L -0.1875 -25.984375 L -0.1875 -26.34375 L 9.96875 -26.34375 L 9.96875 -25.984375 L 8.703125 -25.984375 C 7.578125 -25.984375 7.015625 -25.648438 7.015625 -24.984375 C 7.015625 -24.546875 7.257812 -23.832031 7.75 -22.84375 L 10.921875 -16.71875 C 11.441406 -15.738281 11.90625 -14.828125 12.3125 -13.984375 C 12.71875 -13.148438 13.039062 -12.453125 13.28125 -11.890625 C 13.582031 -12.453125 13.945312 -13.160156 14.375 -14.015625 C 14.800781 -14.878906 15.265625 -15.78125 15.765625 -16.71875 L 18.5625 -22.140625 C 19.15625 -23.242188 19.453125 -24.09375 19.453125 -24.6875 C 19.453125 -25.15625 19.253906 -25.488281 18.859375 -25.6875 C 18.460938 -25.882812 17.847656 -25.984375 17.015625 -25.984375 L 15.53125 -25.984375 L 15.53125 -26.34375 L 23.4375 -26.34375 L 23.4375 -25.984375 L 22.515625 -25.984375 C 21.921875 -25.984375 21.40625 -25.773438 20.96875 -25.359375 C 20.539062 -24.941406 20.046875 -24.191406 19.484375 -23.109375 L 13.46875 -11.484375 L 13.46875 -3.03125 C 13.46875 -1.257812 14.476562 -0.375 16.5 -0.375 L 17.34375 -0.375 L 17.34375 0 Z M 5.875 0 "/></g></g></g><g fill="#ffffff" fill-opacity="1"><g transform="translate(49.622039, 53.555649)"><g/></g></g><g fill="#ffffff" fill-opacity="1"><g transform="translate(64.529408, 53.555649)"><g><path d="M 1.40625 0 L 1.40625 -0.375 L 1.875 -0.375 C 3.894531 -0.375 4.90625 -1.257812 4.90625 -3.03125 L 4.90625 -23.46875 C 4.90625 -25.144531 3.894531 -25.984375 1.875 -25.984375 L 1.40625 -25.984375 L 1.40625 -26.34375 L 11.296875 -26.34375 C 17.617188 -26.34375 20.78125 -24.253906 20.78125 -20.078125 C 20.78125 -16.359375 18.414062 -14.316406 13.6875 -13.953125 L 13.6875 -13.875 C 16.613281 -13.75 18.710938 -13.078125 19.984375 -11.859375 C 21.253906 -10.640625 21.890625 -9.050781 21.890625 -7.09375 C 21.890625 -2.363281 18.726562 0 12.40625 0 Z M 8.640625 -13.984375 L 11.1875 -13.984375 C 13.226562 -13.984375 14.675781 -14.425781 15.53125 -15.3125 C 16.394531 -16.195312 16.828125 -17.675781 16.828125 -19.75 C 16.828125 -21.988281 16.390625 -23.585938 15.515625 -24.546875 C 14.640625 -25.503906 13.171875 -25.984375 11.109375 -25.984375 L 8.640625 -25.984375 Z M 8.640625 -0.375 L 12.21875 -0.375 C 14.28125 -0.375 15.75 -0.890625 16.625 -1.921875 C 17.5 -2.953125 17.9375 -4.675781 17.9375 -7.09375 C 17.9375 -9.425781 17.503906 -11.097656 16.640625 -12.109375 C 15.785156 -13.117188 14.335938 -13.625 12.296875 -13.625 L 8.640625 -13.625 Z M 8.640625 -0.375 "/></g></g></g><g fill="#ffffff" fill-opacity="1"><g transform="translate(95.265882, 53.555649)"><g><path d="M 1.40625 0 L 1.40625 -0.375 L 1.875 -0.375 C 3.894531 -0.375 4.90625 -1.257812 4.90625 -3.03125 L 4.90625 -23.46875 C 4.90625 -25.144531 3.894531 -25.984375 1.875 -25.984375 L 1.40625 -25.984375 L 1.40625 -26.34375 L 11.328125 -26.34375 C 14.523438 -26.34375 16.90625 -25.742188 18.46875 -24.546875 C 20.03125 -23.359375 20.8125 -21.660156 20.8125 -19.453125 C 20.8125 -17.992188 20.519531 -16.8125 19.9375 -15.90625 C 19.363281 -15 18.628906 -14.285156 17.734375 -13.765625 C 16.835938 -13.242188 15.910156 -12.847656 14.953125 -12.578125 L 20.15625 -4.46875 C 21.15625 -2.894531 21.953125 -1.816406 22.546875 -1.234375 C 23.140625 -0.660156 23.734375 -0.375 24.328125 -0.375 L 24.4375 -0.375 L 24.4375 0 L 23.921875 0 C 22.765625 0 21.804688 -0.0390625 21.046875 -0.125 C 20.296875 -0.21875 19.675781 -0.375 19.1875 -0.59375 C 18.695312 -0.8125 18.257812 -1.132812 17.875 -1.5625 C 17.5 -2 17.085938 -2.5625 16.640625 -3.25 L 10.96875 -12.296875 L 8.640625 -12.296875 L 8.640625 -3.03125 C 8.640625 -1.257812 9.644531 -0.375 11.65625 -0.375 L 12.140625 -0.375 L 12.140625 0 Z M 8.640625 -12.65625 L 11.21875 -12.65625 C 13.257812 -12.65625 14.707031 -13.148438 15.5625 -14.140625 C 16.425781 -15.140625 16.859375 -16.820312 16.859375 -19.1875 C 16.859375 -21.625 16.414062 -23.363281 15.53125 -24.40625 C 14.644531 -25.457031 13.179688 -25.984375 11.140625 -25.984375 L 8.640625 -25.984375 Z M 8.640625 -12.65625 "/></g></g></g><g fill="#ffffff" fill-opacity="1"><g transform="translate(126.076146, 53.555649)"><g><path d="M 0 0 L 0 -0.375 L 1.0625 -0.375 C 1.851562 -0.375 2.472656 -0.582031 2.921875 -1 C 3.378906 -1.414062 3.796875 -2.164062 4.171875 -3.25 L 12.21875 -26.34375 L 14.09375 -26.34375 L 23.359375 -2.328125 C 23.628906 -1.585938 23.925781 -1.078125 24.25 -0.796875 C 24.570312 -0.515625 25.003906 -0.375 25.546875 -0.375 L 26.015625 -0.375 L 26.015625 0 L 15.875 0 L 15.875 -0.375 L 16.71875 -0.375 C 17.65625 -0.375 18.332031 -0.484375 18.75 -0.703125 C 19.164062 -0.921875 19.375 -1.3125 19.375 -1.875 C 19.375 -2.070312 19.347656 -2.3125 19.296875 -2.59375 C 19.253906 -2.882812 19.171875 -3.1875 19.046875 -3.5 L 16.796875 -9.5625 L 6.796875 -9.5625 L 4.765625 -3.765625 C 4.535156 -3.128906 4.421875 -2.597656 4.421875 -2.171875 C 4.421875 -1.515625 4.71875 -1.050781 5.3125 -0.78125 C 5.90625 -0.507812 6.851562 -0.375 8.15625 -0.375 L 9 -0.375 L 9 0 Z M 6.90625 -9.921875 L 16.640625 -9.921875 L 13.953125 -17.125 C 12.992188 -19.613281 12.226562 -21.828125 11.65625 -23.765625 C 11.414062 -23.023438 11.203125 -22.375 11.015625 -21.8125 C 10.828125 -21.25 10.628906 -20.648438 10.421875 -20.015625 C 10.210938 -19.390625 9.945312 -18.632812 9.625 -17.75 Z M 6.90625 -9.921875 "/></g></g></g><g fill="#ffffff" fill-opacity="1"><g transform="translate(158.694408, 53.555649)"><g><path d="M 1.40625 0 L 1.40625 -0.375 L 2.46875 -0.375 C 4.488281 -0.375 5.5 -1.257812 5.5 -3.03125 L 5.5 -23.46875 C 5.5 -25.144531 4.488281 -25.984375 2.46875 -25.984375 L 1.40625 -25.984375 L 1.40625 -26.34375 L 8.59375 -26.34375 L 22.65625 -5.28125 L 22.65625 -23.328125 C 22.65625 -25.097656 21.648438 -25.984375 19.640625 -25.984375 L 18.59375 -25.984375 L 18.59375 -26.34375 L 27.125 -26.34375 L 27.125 -25.984375 L 26.0625 -25.984375 C 24.039062 -25.984375 23.03125 -25.097656 23.03125 -23.328125 L 23.03125 0 L 21.921875 0 L 5.875 -24.0625 L 5.875 -3.03125 C 5.875 -1.257812 6.878906 -0.375 8.890625 -0.375 L 9.921875 -0.375 L 9.921875 0 Z M 1.40625 0 "/></g></g></g><g fill="#ffffff" fill-opacity="1"><g transform="translate(193.45273, 53.555649)"><g><path d="M 1.40625 0 L 1.40625 -0.375 L 1.875 -0.375 C 3.894531 -0.375 4.90625 -1.257812 4.90625 -3.03125 L 4.90625 -23.46875 C 4.90625 -25.144531 3.894531 -25.984375 1.875 -25.984375 L 1.40625 -25.984375 L 1.40625 -26.34375 L 12.703125 -26.34375 C 16.484375 -26.34375 19.429688 -25.195312 21.546875 -22.90625 C 23.671875 -20.625 24.734375 -17.394531 24.734375 -13.21875 C 24.734375 -10.507812 24.28125 -8.171875 23.375 -6.203125 C 22.476562 -4.234375 21.140625 -2.707031 19.359375 -1.625 C 17.578125 -0.539062 15.359375 0 12.703125 0 Z M 8.640625 -0.375 L 11.84375 -0.375 C 14.914062 -0.375 17.144531 -1.382812 18.53125 -3.40625 C 19.925781 -5.4375 20.625 -8.707031 20.625 -13.21875 C 20.625 -17.6875 19.925781 -20.929688 18.53125 -22.953125 C 17.144531 -24.972656 14.929688 -25.984375 11.890625 -25.984375 L 8.640625 -25.984375 Z M 8.640625 -0.375 "/></g></g></g><g fill="#ffffff" fill-opacity="1"><g transform="translate(226.88273, 53.555649)"><g><path d="M 9.515625 0.375 C 7.085938 0.375 5.1875 -0.109375 3.8125 -1.078125 C 2.445312 -2.054688 1.765625 -3.269531 1.765625 -4.71875 C 1.765625 -6.445312 2.648438 -7.3125 4.421875 -7.3125 C 4.453125 -4.894531 4.90625 -3.070312 5.78125 -1.84375 C 6.65625 -0.613281 7.988281 0 9.78125 0 C 11.351562 0 12.625 -0.453125 13.59375 -1.359375 C 14.570312 -2.273438 15.0625 -3.644531 15.0625 -5.46875 C 15.0625 -6.570312 14.859375 -7.46875 14.453125 -8.15625 C 14.046875 -8.84375 13.390625 -9.460938 12.484375 -10.015625 C 11.585938 -10.566406 10.414062 -11.175781 8.96875 -11.84375 C 8.207031 -12.21875 7.425781 -12.617188 6.625 -13.046875 C 5.820312 -13.472656 5.082031 -13.988281 4.40625 -14.59375 C 3.726562 -15.195312 3.1875 -15.925781 2.78125 -16.78125 C 2.375 -17.644531 2.171875 -18.691406 2.171875 -19.921875 C 2.171875 -22.140625 2.878906 -23.828125 4.296875 -24.984375 C 5.710938 -26.140625 7.601562 -26.71875 9.96875 -26.71875 C 11.394531 -26.71875 12.648438 -26.519531 13.734375 -26.125 C 14.816406 -25.738281 15.65625 -25.222656 16.25 -24.578125 C 16.851562 -23.941406 17.15625 -23.238281 17.15625 -22.46875 C 17.15625 -21.757812 16.882812 -21.203125 16.34375 -20.796875 C 15.800781 -20.390625 15.101562 -20.1875 14.25 -20.1875 C 14.25 -22.226562 13.914062 -23.765625 13.25 -24.796875 C 12.582031 -25.828125 11.472656 -26.34375 9.921875 -26.34375 C 8.492188 -26.34375 7.351562 -25.910156 6.5 -25.046875 C 5.65625 -24.191406 5.234375 -22.929688 5.234375 -21.265625 C 5.234375 -20.054688 5.453125 -19.082031 5.890625 -18.34375 C 6.335938 -17.601562 7.003906 -16.96875 7.890625 -16.4375 C 8.773438 -15.90625 9.910156 -15.320312 11.296875 -14.6875 C 12.523438 -14.125 13.660156 -13.535156 14.703125 -12.921875 C 15.753906 -12.304688 16.597656 -11.523438 17.234375 -10.578125 C 17.867188 -9.628906 18.1875 -8.40625 18.1875 -6.90625 C 18.1875 -4.664062 17.429688 -2.890625 15.921875 -1.578125 C 14.410156 -0.273438 12.273438 0.375 9.515625 0.375 Z M 9.515625 0.375 "/></g></g></g><path stroke-linecap="butt" transform="matrix(0.748005, -0.000000000000000278, 0.000000000000000278, 0.748005, 7.564855, -0.00000099734)" fill="none" stroke-linejoin="miter" d="M 0.00207404 1.498779 L 334.098991 1.498779 " stroke="#ffffff" stroke-width="3" stroke-opacity="1" stroke-miterlimit="4"/><g fill="#ffffff" fill-opacity="1"><g transform="translate(65.735598, 87.039162)"><g><path d="M 1.84375 -2.5 L 4.3125 -2.5 L 3.078125 -5.609375 Z M 6.046875 0 L 5.296875 0 L 4.5625 -1.84375 L 1.578125 -1.84375 L 0.859375 0 L 0.09375 0 L 3.078125 -7.25 Z M 6.046875 0 "/></g></g></g><g fill="#ffffff" fill-opacity="1"><g transform="translate(71.886758, 87.039162)"><g><path d="M 1.453125 2.5 L 0.75 2.5 L 0.75 -4.390625 L 1.453125 -4.390625 L 1.453125 -3.640625 C 1.484375 -3.691406 1.523438 -3.738281 1.578125 -3.78125 C 1.984375 -4.25 2.488281 -4.484375 3.09375 -4.484375 C 3.695312 -4.484375 4.210938 -4.25 4.640625 -3.78125 C 5.035156 -3.332031 5.234375 -2.800781 5.234375 -2.1875 C 5.234375 -1.582031 5.035156 -1.050781 4.640625 -0.59375 C 4.210938 -0.132812 3.695312 0.09375 3.09375 0.09375 C 2.488281 0.09375 1.984375 -0.132812 1.578125 -0.59375 C 1.523438 -0.644531 1.484375 -0.695312 1.453125 -0.75 Z M 4.53125 -2.1875 C 4.53125 -2.613281 4.382812 -2.988281 4.09375 -3.3125 C 3.800781 -3.625 3.429688 -3.78125 2.984375 -3.78125 C 2.546875 -3.78125 2.179688 -3.625 1.890625 -3.3125 C 1.597656 -2.988281 1.453125 -2.613281 1.453125 -2.1875 C 1.453125 -1.769531 1.597656 -1.398438 1.890625 -1.078125 C 2.179688 -0.753906 2.546875 -0.59375 2.984375 -0.59375 C 3.429688 -0.59375 3.800781 -0.753906 4.09375 -1.078125 C 4.382812 -1.398438 4.53125 -1.769531 4.53125 -2.1875 Z M 4.53125 -2.1875 "/></g></g></g><g fill="#ffffff" fill-opacity="1"><g transform="translate(77.569354, 87.039162)"><g><path d="M 1.453125 2.5 L 0.75 2.5 L 0.75 -4.390625 L 1.453125 -4.390625 L 1.453125 -3.640625 C 1.484375 -3.691406 1.523438 -3.738281 1.578125 -3.78125 C 1.984375 -4.25 2.488281 -4.484375 3.09375 -4.484375 C 3.695312 -4.484375 4.210938 -4.25 4.640625 -3.78125 C 5.035156 -3.332031 5.234375 -2.800781 5.234375 -2.1875 C 5.234375 -1.582031 5.035156 -1.050781 4.640625 -0.59375 C 4.210938 -0.132812 3.695312 0.09375 3.09375 0.09375 C 2.488281 0.09375 1.984375 -0.132812 1.578125 -0.59375 C 1.523438 -0.644531 1.484375 -0.695312 1.453125 -0.75 Z M 4.53125 -2.1875 C 4.53125 -2.613281 4.382812 -2.988281 4.09375 -3.3125 C 3.800781 -3.625 3.429688 -3.78125 2.984375 -3.78125 C 2.546875 -3.78125 2.179688 -3.625 1.890625 -3.3125 C 1.597656 -2.988281 1.453125 -2.613281 1.453125 -2.1875 C 1.453125 -1.769531 1.597656 -1.398438 1.890625 -1.078125 C 2.179688 -0.753906 2.546875 -0.59375 2.984375 -0.59375 C 3.429688 -0.59375 3.800781 -0.753906 4.09375 -1.078125 C 4.382812 -1.398438 4.53125 -1.769531 4.53125 -2.1875 Z M 4.53125 -2.1875 "/></g></g></g><g fill="#ffffff" fill-opacity="1"><g transform="translate(83.25195, 87.039162)"><g><path d="M 4.234375 -2.1875 C 4.234375 -2.613281 4.085938 -2.988281 3.796875 -3.3125 C 3.492188 -3.625 3.125 -3.78125 2.6875 -3.78125 C 2.25 -3.78125 1.882812 -3.625 1.59375 -3.3125 C 1.289062 -2.988281 1.140625 -2.613281 1.140625 -2.1875 C 1.140625 -1.769531 1.289062 -1.398438 1.59375 -1.078125 C 1.882812 -0.753906 2.25 -0.59375 2.6875 -0.59375 C 3.125 -0.59375 3.492188 -0.753906 3.796875 -1.078125 C 4.085938 -1.398438 4.234375 -1.769531 4.234375 -2.1875 Z M 4.9375 0 L 4.234375 0 L 4.234375 -0.75 C 4.191406 -0.695312 4.148438 -0.644531 4.109375 -0.59375 C 3.691406 -0.132812 3.179688 0.09375 2.578125 0.09375 C 1.972656 0.09375 1.46875 -0.132812 1.0625 -0.59375 C 0.65625 -1.050781 0.453125 -1.582031 0.453125 -2.1875 C 0.453125 -2.800781 0.65625 -3.332031 1.0625 -3.78125 C 1.46875 -4.25 1.972656 -4.484375 2.578125 -4.484375 C 3.179688 -4.484375 3.691406 -4.25 4.109375 -3.78125 C 4.148438 -3.738281 4.191406 -3.691406 4.234375 -3.640625 L 4.234375 -4.390625 L 4.9375 -4.390625 Z M 4.9375 0 "/></g></g></g><g fill="#ffffff" fill-opacity="1"><g transform="translate(88.934546, 87.039162)"><g><path d="M 3 -3.484375 C 2.84375 -3.628906 2.671875 -3.703125 2.484375 -3.703125 C 2.304688 -3.703125 2.15625 -3.648438 2.03125 -3.546875 C 1.894531 -3.441406 1.78125 -3.316406 1.6875 -3.171875 C 1.53125 -2.878906 1.453125 -2.550781 1.453125 -2.1875 L 1.453125 0 L 0.75 0 L 0.75 -4.390625 L 1.453125 -4.390625 L 1.453125 -3.484375 L 1.46875 -3.65625 C 1.707031 -4.195312 2.070312 -4.46875 2.5625 -4.46875 C 2.71875 -4.46875 2.863281 -4.441406 3 -4.390625 Z M 3 -3.484375 "/></g></g></g><g fill="#ffffff" fill-opacity="1"><g transform="translate(92.035054, 87.039162)"><g><path d="M 5.03125 -2.296875 L 5.03125 -1.921875 L 1.171875 -1.921875 C 1.242188 -1.546875 1.425781 -1.238281 1.71875 -1 C 2.03125 -0.75 2.367188 -0.625 2.734375 -0.625 C 2.992188 -0.625 3.238281 -0.6875 3.46875 -0.8125 C 3.695312 -0.925781 3.882812 -1.082031 4.03125 -1.28125 L 4.828125 -1.28125 C 4.648438 -0.863281 4.375 -0.535156 4 -0.296875 C 3.613281 -0.0546875 3.226562 0.0625 2.84375 0.0625 C 2.457031 0.0625 2.128906 0.00390625 1.859375 -0.109375 C 1.578125 -0.234375 1.332031 -0.394531 1.125 -0.59375 C 0.675781 -1.03125 0.453125 -1.570312 0.453125 -2.21875 C 0.453125 -2.84375 0.675781 -3.382812 1.125 -3.84375 C 1.570312 -4.28125 2.109375 -4.5 2.734375 -4.5 C 3.347656 -4.5 3.882812 -4.285156 4.34375 -3.859375 C 4.800781 -3.421875 5.03125 -2.898438 5.03125 -2.296875 Z M 4.296875 -2.515625 C 4.210938 -2.890625 4.023438 -3.203125 3.734375 -3.453125 C 3.441406 -3.691406 3.109375 -3.8125 2.734375 -3.8125 C 2.171875 -3.8125 1.722656 -3.554688 1.390625 -3.046875 C 1.296875 -2.878906 1.226562 -2.703125 1.1875 -2.515625 Z M 4.296875 -2.515625 "/></g></g></g><g fill="#ffffff" fill-opacity="1"><g transform="translate(97.46841, 87.039162)"><g><path d="M 1.453125 0 L 0.75 0 L 0.75 -7.484375 L 1.453125 -7.484375 Z M 1.453125 0 "/></g></g></g><g fill="#ffffff" fill-opacity="1"><g transform="translate(99.661692, 87.039162)"><g/></g></g><g fill="#ffffff" fill-opacity="1"><g transform="translate(102.353454, 87.039162)"><g><path d="M 2.625 -3.4375 C 2.238281 -3.15625 1.972656 -2.941406 1.828125 -2.796875 C 1.492188 -2.472656 1.328125 -2.171875 1.328125 -1.890625 C 1.328125 -1.554688 1.453125 -1.257812 1.703125 -1 C 1.941406 -0.726562 2.234375 -0.59375 2.578125 -0.59375 C 2.941406 -0.59375 3.34375 -0.800781 3.78125 -1.21875 C 3.894531 -1.332031 4.003906 -1.4375 4.109375 -1.53125 Z M 2.5625 -4.5625 C 2.644531 -4.46875 2.722656 -4.378906 2.796875 -4.296875 C 2.890625 -4.367188 2.992188 -4.445312 3.109375 -4.53125 C 3.210938 -4.601562 3.3125 -4.6875 3.40625 -4.78125 C 3.625 -4.988281 3.734375 -5.21875 3.734375 -5.46875 C 3.734375 -5.707031 3.648438 -5.898438 3.484375 -6.046875 C 3.316406 -6.179688 3.132812 -6.253906 2.9375 -6.265625 C 2.726562 -6.273438 2.539062 -6.210938 2.375 -6.078125 C 2.207031 -5.941406 2.125 -5.726562 2.125 -5.4375 C 2.125 -5.144531 2.269531 -4.851562 2.5625 -4.5625 Z M 5.9375 -2.640625 C 5.832031 -2.503906 5.53125 -2.132812 5.03125 -1.53125 L 6.203125 0 L 5.28125 0.015625 L 4.546875 -0.953125 C 4.210938 -0.617188 3.945312 -0.390625 3.75 -0.265625 C 3.34375 -0.00390625 2.984375 0.125 2.671875 0.125 C 2.359375 0.125 2.082031 0.0703125 1.84375 -0.03125 C 1.59375 -0.125 1.382812 -0.257812 1.21875 -0.4375 C 0.832031 -0.8125 0.640625 -1.28125 0.640625 -1.84375 C 0.640625 -2.5 0.960938 -3.0625 1.609375 -3.53125 C 1.796875 -3.664062 1.988281 -3.804688 2.1875 -3.953125 C 1.707031 -4.503906 1.46875 -4.992188 1.46875 -5.421875 C 1.46875 -5.835938 1.601562 -6.1875 1.875 -6.46875 C 2.132812 -6.738281 2.488281 -6.875 2.9375 -6.875 C 3.351562 -6.875 3.695312 -6.742188 3.96875 -6.484375 C 4.238281 -6.222656 4.375 -5.882812 4.375 -5.46875 C 4.375 -5.03125 4.113281 -4.597656 3.59375 -4.171875 C 3.457031 -4.054688 3.328125 -3.945312 3.203125 -3.84375 L 4.59375 -2.0625 C 4.726562 -2.21875 4.859375 -2.378906 4.984375 -2.546875 L 5.359375 -3.015625 Z M 5.9375 -2.640625 "/></g></g></g><g fill="#ffffff" fill-opacity="1"><g transform="translate(109.22242, 87.039162)"><g/></g></g><g fill="#ffffff" fill-opacity="1"><g transform="translate(111.914182, 87.039162)"><g><path d="M 4.78125 -6.125 L 1.453125 -6.125 L 1.453125 -3.71875 L 4.671875 -3.71875 L 4.671875 -3.0625 L 1.453125 -3.0625 L 1.453125 0 L 0.75 0 L 0.75 -6.78125 L 4.78125 -6.78125 Z M 4.78125 -6.125 "/></g></g></g><g fill="#ffffff" fill-opacity="1"><g transform="translate(116.888949, 87.039162)"><g><path d="M 4.34375 -2.21875 C 4.34375 -2.65625 4.1875 -3.03125 3.875 -3.34375 C 3.5625 -3.65625 3.179688 -3.8125 2.734375 -3.8125 C 2.296875 -3.8125 1.921875 -3.65625 1.609375 -3.34375 C 1.296875 -3.03125 1.140625 -2.65625 1.140625 -2.21875 C 1.140625 -1.78125 1.296875 -1.40625 1.609375 -1.09375 C 1.921875 -0.78125 2.296875 -0.625 2.734375 -0.625 C 3.179688 -0.625 3.5625 -0.78125 3.875 -1.09375 C 4.1875 -1.40625 4.34375 -1.78125 4.34375 -2.21875 Z M 5.03125 -2.21875 C 5.03125 -1.570312 4.804688 -1.03125 4.359375 -0.59375 C 3.898438 -0.15625 3.359375 0.0625 2.734375 0.0625 C 2.109375 0.0625 1.570312 -0.15625 1.125 -0.59375 C 0.675781 -1.03125 0.453125 -1.570312 0.453125 -2.21875 C 0.453125 -2.84375 0.675781 -3.382812 1.125 -3.84375 C 1.570312 -4.28125 2.109375 -4.5 2.734375 -4.5 C 3.367188 -4.5 3.910156 -4.28125 4.359375 -3.84375 C 4.804688 -3.382812 5.03125 -2.84375 5.03125 -2.21875 Z M 5.03125 -2.21875 "/></g></g></g><g fill="#ffffff" fill-opacity="1"><g transform="translate(122.37216, 87.039162)"><g><path d="M 4.34375 -2.21875 C 4.34375 -2.65625 4.1875 -3.03125 3.875 -3.34375 C 3.5625 -3.65625 3.179688 -3.8125 2.734375 -3.8125 C 2.296875 -3.8125 1.921875 -3.65625 1.609375 -3.34375 C 1.296875 -3.03125 1.140625 -2.65625 1.140625 -2.21875 C 1.140625 -1.78125 1.296875 -1.40625 1.609375 -1.09375 C 1.921875 -0.78125 2.296875 -0.625 2.734375 -0.625 C 3.179688 -0.625 3.5625 -0.78125 3.875 -1.09375 C 4.1875 -1.40625 4.34375 -1.78125 4.34375 -2.21875 Z M 5.03125 -2.21875 C 5.03125 -1.570312 4.804688 -1.03125 4.359375 -0.59375 C 3.898438 -0.15625 3.359375 0.0625 2.734375 0.0625 C 2.109375 0.0625 1.570312 -0.15625 1.125 -0.59375 C 0.675781 -1.03125 0.453125 -1.570312 0.453125 -2.21875 C 0.453125 -2.84375 0.675781 -3.382812 1.125 -3.84375 C 1.570312 -4.28125 2.109375 -4.5 2.734375 -4.5 C 3.367188 -4.5 3.910156 -4.28125 4.359375 -3.84375 C 4.804688 -3.382812 5.03125 -2.84375 5.03125 -2.21875 Z M 5.03125 -2.21875 "/></g></g></g><g fill="#ffffff" fill-opacity="1"><g transform="translate(127.85537, 87.039162)"><g><path d="M 0.203125 -3.734375 L 0.203125 -4.390625 L 1.296875 -4.390625 L 1.296875 -6.09375 L 2 -6.09375 L 2 -4.390625 L 3.078125 -4.390625 L 3.078125 -3.734375 L 2 -3.734375 L 2 0 L 1.296875 0 L 1.296875 -3.734375 Z M 0.203125 -3.734375 "/></g></g></g><g fill="#ffffff" fill-opacity="1"><g transform="translate(131.135324, 87.039162)"><g><path d="M 5.03125 0.5625 L 3.609375 -2.984375 L 2.203125 0.5625 L 0.09375 -4.390625 L 0.875 -4.390625 L 2.1875 -1 L 3.609375 -4.609375 L 5.03125 -1 L 6.34375 -4.390625 L 7.125 -4.390625 Z M 5.03125 0.5625 "/></g></g></g><g fill="#ffffff" fill-opacity="1"><g transform="translate(138.353216, 87.039162)"><g><path d="M 5.03125 -2.296875 L 5.03125 -1.921875 L 1.171875 -1.921875 C 1.242188 -1.546875 1.425781 -1.238281 1.71875 -1 C 2.03125 -0.75 2.367188 -0.625 2.734375 -0.625 C 2.992188 -0.625 3.238281 -0.6875 3.46875 -0.8125 C 3.695312 -0.925781 3.882812 -1.082031 4.03125 -1.28125 L 4.828125 -1.28125 C 4.648438 -0.863281 4.375 -0.535156 4 -0.296875 C 3.613281 -0.0546875 3.226562 0.0625 2.84375 0.0625 C 2.457031 0.0625 2.128906 0.00390625 1.859375 -0.109375 C 1.578125 -0.234375 1.332031 -0.394531 1.125 -0.59375 C 0.675781 -1.03125 0.453125 -1.570312 0.453125 -2.21875 C 0.453125 -2.84375 0.675781 -3.382812 1.125 -3.84375 C 1.570312 -4.28125 2.109375 -4.5 2.734375 -4.5 C 3.347656 -4.5 3.882812 -4.285156 4.34375 -3.859375 C 4.800781 -3.421875 5.03125 -2.898438 5.03125 -2.296875 Z M 4.296875 -2.515625 C 4.210938 -2.890625 4.023438 -3.203125 3.734375 -3.453125 C 3.441406 -3.691406 3.109375 -3.8125 2.734375 -3.8125 C 2.171875 -3.8125 1.722656 -3.554688 1.390625 -3.046875 C 1.296875 -2.878906 1.226562 -2.703125 1.1875 -2.515625 Z M 4.296875 -2.515625 "/></g></g></g><g fill="#ffffff" fill-opacity="1"><g transform="translate(143.786572, 87.039162)"><g><path d="M 4.234375 -2.1875 C 4.234375 -2.613281 4.085938 -2.988281 3.796875 -3.3125 C 3.492188 -3.625 3.125 -3.78125 2.6875 -3.78125 C 2.25 -3.78125 1.882812 -3.625 1.59375 -3.3125 C 1.289062 -2.988281 1.140625 -2.613281 1.140625 -2.1875 C 1.140625 -1.769531 1.289062 -1.398438 1.59375 -1.078125 C 1.882812 -0.753906 2.25 -0.59375 2.6875 -0.59375 C 3.125 -0.59375 3.492188 -0.753906 3.796875 -1.078125 C 4.085938 -1.398438 4.234375 -1.769531 4.234375 -2.1875 Z M 4.9375 0 L 4.234375 0 L 4.234375 -0.75 C 4.191406 -0.695312 4.148438 -0.644531 4.109375 -0.59375 C 3.691406 -0.132812 3.179688 0.09375 2.578125 0.09375 C 1.972656 0.09375 1.46875 -0.132812 1.0625 -0.59375 C 0.65625 -1.050781 0.453125 -1.582031 0.453125 -2.1875 C 0.453125 -2.800781 0.65625 -3.332031 1.0625 -3.78125 C 1.46875 -4.25 1.972656 -4.484375 2.578125 -4.484375 C 3.179688 -4.484375 3.691406 -4.25 4.109375 -3.78125 C 4.148438 -3.738281 4.191406 -3.691406 4.234375 -3.640625 L 4.234375 -4.390625 L 4.9375 -4.390625 Z M 4.9375 0 "/></g></g></g><g fill="#ffffff" fill-opacity="1"><g transform="translate(149.469168, 87.039162)"><g><path d="M 3 -3.484375 C 2.84375 -3.628906 2.671875 -3.703125 2.484375 -3.703125 C 2.304688 -3.703125 2.15625 -3.648438 2.03125 -3.546875 C 1.894531 -3.441406 1.78125 -3.316406 1.6875 -3.171875 C 1.53125 -2.878906 1.453125 -2.550781 1.453125 -2.1875 L 1.453125 0 L 0.75 0 L 0.75 -4.390625 L 1.453125 -4.390625 L 1.453125 -3.484375 L 1.46875 -3.65625 C 1.707031 -4.195312 2.070312 -4.46875 2.5625 -4.46875 C 2.71875 -4.46875 2.863281 -4.441406 3 -4.390625 Z M 3 -3.484375 "/></g></g></g><g fill="#ffffff" fill-opacity="1"><g transform="translate(152.569676, 87.039162)"><g/></g></g><g fill="#ffffff" fill-opacity="1"><g transform="translate(155.261438, 87.039162)"><g><path d="M 1.453125 -3.359375 L 3.015625 -3.359375 C 3.410156 -3.359375 3.734375 -3.492188 3.984375 -3.765625 C 4.242188 -4.023438 4.375 -4.351562 4.375 -4.75 C 4.375 -5.15625 4.25 -5.484375 4 -5.734375 C 3.757812 -5.984375 3.429688 -6.109375 3.015625 -6.109375 L 1.453125 -6.109375 Z M 5.078125 -4.734375 C 5.078125 -4.140625 4.867188 -3.648438 4.453125 -3.265625 C 4.035156 -2.878906 3.523438 -2.6875 2.921875 -2.6875 L 1.453125 -2.6875 L 1.453125 0 L 0.75 0 L 0.75 -6.78125 L 2.921875 -6.78125 C 3.515625 -6.78125 4.023438 -6.585938 4.453125 -6.203125 C 4.867188 -5.816406 5.078125 -5.328125 5.078125 -4.734375 Z M 5.078125 -4.734375 "/></g></g></g><g fill="#ffffff" fill-opacity="1"><g transform="translate(160.535288, 87.039162)"><g><path d="M 3 -3.484375 C 2.84375 -3.628906 2.671875 -3.703125 2.484375 -3.703125 C 2.304688 -3.703125 2.15625 -3.648438 2.03125 -3.546875 C 1.894531 -3.441406 1.78125 -3.316406 1.6875 -3.171875 C 1.53125 -2.878906 1.453125 -2.550781 1.453125 -2.1875 L 1.453125 0 L 0.75 0 L 0.75 -4.390625 L 1.453125 -4.390625 L 1.453125 -3.484375 L 1.46875 -3.65625 C 1.707031 -4.195312 2.070312 -4.46875 2.5625 -4.46875 C 2.71875 -4.46875 2.863281 -4.441406 3 -4.390625 Z M 3 -3.484375 "/></g></g></g><g fill="#ffffff" fill-opacity="1"><g transform="translate(163.635796, 87.039162)"><g><path d="M 4.34375 -2.21875 C 4.34375 -2.65625 4.1875 -3.03125 3.875 -3.34375 C 3.5625 -3.65625 3.179688 -3.8125 2.734375 -3.8125 C 2.296875 -3.8125 1.921875 -3.65625 1.609375 -3.34375 C 1.296875 -3.03125 1.140625 -2.65625 1.140625 -2.21875 C 1.140625 -1.78125 1.296875 -1.40625 1.609375 -1.09375 C 1.921875 -0.78125 2.296875 -0.625 2.734375 -0.625 C 3.179688 -0.625 3.5625 -0.78125 3.875 -1.09375 C 4.1875 -1.40625 4.34375 -1.78125 4.34375 -2.21875 Z M 5.03125 -2.21875 C 5.03125 -1.570312 4.804688 -1.03125 4.359375 -0.59375 C 3.898438 -0.15625 3.359375 0.0625 2.734375 0.0625 C 2.109375 0.0625 1.570312 -0.15625 1.125 -0.59375 C 0.675781 -1.03125 0.453125 -1.570312 0.453125 -2.21875 C 0.453125 -2.84375 0.675781 -3.382812 1.125 -3.84375 C 1.570312 -4.28125 2.109375 -4.5 2.734375 -4.5 C 3.367188 -4.5 3.910156 -4.28125 4.359375 -3.84375 C 4.804688 -3.382812 5.03125 -2.84375 5.03125 -2.21875 Z M 5.03125 -2.21875 "/></g></g></g><g fill="#ffffff" fill-opacity="1"><g transform="translate(169.119007, 87.039162)"><g><path d="M 4.234375 -2.1875 C 4.234375 -2.613281 4.085938 -2.988281 3.796875 -3.3125 C 3.492188 -3.625 3.125 -3.78125 2.6875 -3.78125 C 2.25 -3.78125 1.882812 -3.625 1.59375 -3.3125 C 1.289062 -2.988281 1.140625 -2.613281 1.140625 -2.1875 C 1.140625 -1.769531 1.289062 -1.398438 1.59375 -1.078125 C 1.882812 -0.753906 2.25 -0.59375 2.6875 -0.59375 C 3.125 -0.59375 3.492188 -0.753906 3.796875 -1.078125 C 4.085938 -1.398438 4.234375 -1.769531 4.234375 -2.1875 Z M 4.9375 0 L 4.234375 0 L 4.234375 -0.75 C 4.191406 -0.695312 4.148438 -0.644531 4.109375 -0.59375 C 3.691406 -0.132812 3.179688 0.09375 2.578125 0.09375 C 1.972656 0.09375 1.46875 -0.132812 1.0625 -0.59375 C 0.65625 -1.050781 0.453125 -1.582031 0.453125 -2.1875 C 0.453125 -2.800781 0.65625 -3.332031 1.0625 -3.78125 C 1.46875 -4.25 1.972656 -4.484375 2.578125 -4.484375 C 3.179688 -4.484375 3.691406 -4.25 4.109375 -3.78125 C 4.148438 -3.738281 4.191406 -3.691406 4.234375 -3.640625 L 4.234375 -7.484375 L 4.9375 -7.484375 Z M 4.9375 0 "/></g></g></g><g fill="#ffffff" fill-opacity="1"><g transform="translate(174.801603, 87.039162)"><g><path d="M 3.78125 -0.75 C 3.457031 -0.1875 2.96875 0.09375 2.3125 0.09375 C 1.820312 0.09375 1.4375 -0.0703125 1.15625 -0.40625 C 0.882812 -0.726562 0.75 -1.140625 0.75 -1.640625 L 0.75 -4.390625 L 1.453125 -4.390625 L 1.453125 -1.640625 C 1.453125 -1.359375 1.515625 -1.117188 1.640625 -0.921875 C 1.765625 -0.710938 1.976562 -0.609375 2.28125 -0.609375 C 2.820312 -0.609375 3.207031 -0.78125 3.4375 -1.125 C 3.664062 -1.46875 3.78125 -1.941406 3.78125 -2.546875 L 3.78125 -4.390625 L 4.46875 -4.390625 L 4.46875 0 L 3.78125 0 Z M 3.78125 -0.75 "/></g></g></g><g fill="#ffffff" fill-opacity="1"><g transform="translate(179.876068, 87.039162)"><g><path d="M 4.84375 -2.8125 L 4.09375 -2.8125 C 3.96875 -3.09375 3.78125 -3.316406 3.53125 -3.484375 C 3.28125 -3.660156 3.023438 -3.75 2.765625 -3.75 C 2.503906 -3.75 2.28125 -3.707031 2.09375 -3.625 C 1.90625 -3.539062 1.742188 -3.429688 1.609375 -3.296875 C 1.316406 -2.984375 1.171875 -2.613281 1.171875 -2.1875 C 1.171875 -1.769531 1.316406 -1.40625 1.609375 -1.09375 C 1.898438 -0.78125 2.257812 -0.625 2.6875 -0.625 C 2.96875 -0.625 3.226562 -0.695312 3.46875 -0.84375 C 3.695312 -0.988281 3.878906 -1.1875 4.015625 -1.4375 L 4.8125 -1.4375 C 4.5625 -0.726562 4.082031 -0.253906 3.375 -0.015625 C 3.15625 0.0546875 2.90625 0.09375 2.625 0.09375 C 2.351562 0.09375 2.078125 0.03125 1.796875 -0.09375 C 1.523438 -0.207031 1.289062 -0.375 1.09375 -0.59375 C 0.664062 -1.039062 0.453125 -1.570312 0.453125 -2.1875 C 0.453125 -2.8125 0.664062 -3.347656 1.09375 -3.796875 C 1.53125 -4.242188 2.0625 -4.46875 2.6875 -4.46875 C 3.195312 -4.46875 3.65625 -4.3125 4.0625 -4 C 4.445312 -3.707031 4.707031 -3.3125 4.84375 -2.8125 Z M 4.84375 -2.8125 "/></g></g></g><g fill="#ffffff" fill-opacity="1"><g transform="translate(185.07016, 87.039162)"><g><path d="M 0.203125 -3.734375 L 0.203125 -4.390625 L 1.296875 -4.390625 L 1.296875 -6.09375 L 2 -6.09375 L 2 -4.390625 L 3.078125 -4.390625 L 3.078125 -3.734375 L 2 -3.734375 L 2 0 L 1.296875 0 L 1.296875 -3.734375 Z M 0.203125 -3.734375 "/></g></g></g><g fill="#ffffff" fill-opacity="1"><g transform="translate(188.350113, 87.039162)"><g><path d="M 1.453125 -5.90625 C 1.535156 -5.8125 1.578125 -5.707031 1.578125 -5.59375 C 1.578125 -5.46875 1.535156 -5.363281 1.453125 -5.28125 C 1.367188 -5.1875 1.265625 -5.140625 1.140625 -5.140625 C 1.015625 -5.140625 0.910156 -5.1875 0.828125 -5.28125 C 0.742188 -5.363281 0.703125 -5.46875 0.703125 -5.59375 C 0.703125 -5.707031 0.742188 -5.8125 0.828125 -5.90625 C 0.910156 -5.988281 1.015625 -6.03125 1.140625 -6.03125 C 1.265625 -6.03125 1.367188 -5.988281 1.453125 -5.90625 Z M 1.5 0 L 0.796875 0 L 0.796875 -4.390625 L 1.5 -4.390625 Z M 1.5 0 "/></g></g></g><g fill="#ffffff" fill-opacity="1"><g transform="translate(190.633118, 87.039162)"><g><path d="M 4.34375 -2.21875 C 4.34375 -2.65625 4.1875 -3.03125 3.875 -3.34375 C 3.5625 -3.65625 3.179688 -3.8125 2.734375 -3.8125 C 2.296875 -3.8125 1.921875 -3.65625 1.609375 -3.34375 C 1.296875 -3.03125 1.140625 -2.65625 1.140625 -2.21875 C 1.140625 -1.78125 1.296875 -1.40625 1.609375 -1.09375 C 1.921875 -0.78125 2.296875 -0.625 2.734375 -0.625 C 3.179688 -0.625 3.5625 -0.78125 3.875 -1.09375 C 4.1875 -1.40625 4.34375 -1.78125 4.34375 -2.21875 Z M 5.03125 -2.21875 C 5.03125 -1.570312 4.804688 -1.03125 4.359375 -0.59375 C 3.898438 -0.15625 3.359375 0.0625 2.734375 0.0625 C 2.109375 0.0625 1.570312 -0.15625 1.125 -0.59375 C 0.675781 -1.03125 0.453125 -1.570312 0.453125 -2.21875 C 0.453125 -2.84375 0.675781 -3.382812 1.125 -3.84375 C 1.570312 -4.28125 2.109375 -4.5 2.734375 -4.5 C 3.367188 -4.5 3.910156 -4.28125 4.359375 -3.84375 C 4.804688 -3.382812 5.03125 -2.84375 5.03125 -2.21875 Z M 5.03125 -2.21875 "/></g></g></g><g fill="#ffffff" fill-opacity="1"><g transform="translate(196.116329, 87.039162)"><g><path d="M 3.78125 0 L 3.78125 -2.734375 C 3.78125 -3.023438 3.71875 -3.273438 3.59375 -3.484375 C 3.457031 -3.679688 3.238281 -3.78125 2.9375 -3.78125 C 2.644531 -3.78125 2.40625 -3.722656 2.21875 -3.609375 C 2.03125 -3.492188 1.878906 -3.347656 1.765625 -3.171875 C 1.554688 -2.835938 1.453125 -2.390625 1.453125 -1.828125 L 1.453125 0 L 0.75 0 L 0.75 -4.390625 L 1.453125 -4.390625 L 1.453125 -3.625 C 1.597656 -3.875 1.78125 -4.078125 2 -4.234375 C 2.238281 -4.390625 2.515625 -4.46875 2.828125 -4.46875 C 3.140625 -4.46875 3.394531 -4.425781 3.59375 -4.34375 C 3.78125 -4.25 3.941406 -4.128906 4.078125 -3.984375 C 4.335938 -3.671875 4.46875 -3.253906 4.46875 -2.734375 L 4.46875 0 Z M 3.78125 0 "/></g></g></g><path stroke-linecap="butt" transform="matrix(-0.748005, 0, 0, -0.748005, 54.957901, 87.42795)" fill="none" stroke-linejoin="miter" d="M 0.00116286 1.501677 L 61.868835 1.501677 " stroke="#ffffff" stroke-width="3" stroke-opacity="1" stroke-miterlimit="4"/><g clip-path="url(#fd4cfae9ed)"><path stroke-linecap="butt" transform="matrix(-0.00985327, -0.74794, 0.74794, -0.00985327, 8.682237, 86.301375)" fill="none" stroke-linejoin="miter" d="M 0.0019135 1.500747 L 113.871904 1.501948 " stroke="#ffffff" stroke-width="3" stroke-opacity="1" stroke-miterlimit="4"/></g><g clip-path="url(#bca6dc4708)"><path stroke-linecap="butt" transform="matrix(-0.00985327, -0.74794, 0.74794, -0.00985327, 256.345247, 86.286592)" fill="none" stroke-linejoin="miter" d="M -0.00220121 1.5021 L 113.87308 1.498148 " stroke="#ffffff" stroke-width="3" stroke-opacity="1" stroke-miterlimit="4"/></g><path stroke-linecap="butt" transform="matrix(-0.748005, 0, 0, -0.748005, 257.464246, 86.305942)" fill="none" stroke-linejoin="miter" d="M -0.000798815 1.500455 L 61.866873 1.500455 " stroke="#ffffff" stroke-width="3" stroke-opacity="1" stroke-miterlimit="4"/></svg>